<mxfile host="app.diagrams.net" modified="2021-08-21T18:44:45.601Z" agent="5.0 (Windows NT 10.0; Win64; x64) AppleWebKit/537.36 (KHTML, like Gecko) Chrome/92.0.4515.159 Safari/537.36" etag="I5fJGrrKF_LyGBr5yVhn" version="14.9.7" type="github">
  <diagram id="KLMJrU8cnEInf86KYHvK" name="Page-1">
    <mxGraphModel dx="1038" dy="579" grid="1" gridSize="10" guides="1" tooltips="1" connect="1" arrows="1" fold="1" page="1" pageScale="1" pageWidth="827" pageHeight="1169" math="0" shadow="0">
      <root>
        <mxCell id="0" />
        <mxCell id="1" parent="0" />
        <mxCell id="PCxkefbeYpebLAiZtsZ4-1" value="Khách hàng" style="shape=umlLifeline;perimeter=lifelinePerimeter;container=1;collapsible=0;recursiveResize=0;rounded=0;shadow=0;strokeWidth=1;" parent="1" vertex="1">
          <mxGeometry x="120" y="80" width="100" height="320" as="geometry" />
        </mxCell>
        <mxCell id="PCxkefbeYpebLAiZtsZ4-2" value="" style="points=[];perimeter=orthogonalPerimeter;rounded=0;shadow=0;strokeWidth=1;" parent="PCxkefbeYpebLAiZtsZ4-1" vertex="1">
          <mxGeometry x="45" y="60" width="10" height="40" as="geometry" />
        </mxCell>
        <mxCell id="PCxkefbeYpebLAiZtsZ4-3" value="Thiết bị/Giao diện" style="shape=umlLifeline;perimeter=lifelinePerimeter;container=1;collapsible=0;recursiveResize=0;rounded=0;shadow=0;strokeWidth=1;" parent="1" vertex="1">
          <mxGeometry x="300" y="80" width="100" height="320" as="geometry" />
        </mxCell>
        <mxCell id="PCxkefbeYpebLAiZtsZ4-4" value="" style="points=[];perimeter=orthogonalPerimeter;rounded=0;shadow=0;strokeWidth=1;" parent="PCxkefbeYpebLAiZtsZ4-3" vertex="1">
          <mxGeometry x="45" y="100" width="10" height="40" as="geometry" />
        </mxCell>
        <mxCell id="PCxkefbeYpebLAiZtsZ4-5" value="Nhập thông tin cá nhân" style="verticalAlign=bottom;endArrow=block;shadow=0;strokeWidth=1;" parent="1" source="PCxkefbeYpebLAiZtsZ4-2" target="PCxkefbeYpebLAiZtsZ4-4" edge="1">
          <mxGeometry relative="1" as="geometry">
            <mxPoint x="275" y="160" as="sourcePoint" />
            <mxPoint x="320" y="200" as="targetPoint" />
            <Array as="points">
              <mxPoint x="240" y="180" />
              <mxPoint x="320" y="180" />
            </Array>
          </mxGeometry>
        </mxCell>
        <mxCell id="PCxkefbeYpebLAiZtsZ4-6" value="Hệ thống" style="shape=umlLifeline;perimeter=lifelinePerimeter;container=1;collapsible=0;recursiveResize=0;rounded=0;shadow=0;strokeWidth=1;" parent="1" vertex="1">
          <mxGeometry x="480" y="80" width="100" height="320" as="geometry" />
        </mxCell>
        <mxCell id="PCxkefbeYpebLAiZtsZ4-7" value="" style="points=[];perimeter=orthogonalPerimeter;rounded=0;shadow=0;strokeWidth=1;" parent="PCxkefbeYpebLAiZtsZ4-6" vertex="1">
          <mxGeometry x="45" y="140" width="10" height="40" as="geometry" />
        </mxCell>
        <mxCell id="PCxkefbeYpebLAiZtsZ4-8" value="Kiểm tra hợp lệ" style="verticalAlign=bottom;endArrow=block;shadow=0;strokeWidth=1;" parent="1" source="PCxkefbeYpebLAiZtsZ4-4" target="PCxkefbeYpebLAiZtsZ4-7" edge="1">
          <mxGeometry relative="1" as="geometry">
            <mxPoint x="350" y="160.0000000000001" as="sourcePoint" />
            <mxPoint x="520" y="160.0000000000001" as="targetPoint" />
            <Array as="points">
              <mxPoint x="410" y="220" />
            </Array>
          </mxGeometry>
        </mxCell>
        <mxCell id="PCxkefbeYpebLAiZtsZ4-9" value="" style="html=1;points=[];perimeter=orthogonalPerimeter;" parent="1" vertex="1">
          <mxGeometry x="525" y="300" width="10" height="40" as="geometry" />
        </mxCell>
        <mxCell id="PCxkefbeYpebLAiZtsZ4-10" value="" style="edgeStyle=orthogonalEdgeStyle;html=1;align=left;spacingLeft=2;endArrow=block;rounded=0;entryX=1;entryY=0;" parent="1" target="PCxkefbeYpebLAiZtsZ4-9" edge="1">
          <mxGeometry relative="1" as="geometry">
            <mxPoint x="535" y="250" as="sourcePoint" />
            <Array as="points">
              <mxPoint x="535" y="260" />
              <mxPoint x="565" y="260" />
              <mxPoint x="565" y="300" />
            </Array>
          </mxGeometry>
        </mxCell>
        <mxCell id="PCxkefbeYpebLAiZtsZ4-11" value="Thông tin hợp lệ" style="html=1;verticalAlign=bottom;endArrow=block;" parent="1" source="PCxkefbeYpebLAiZtsZ4-7" target="PCxkefbeYpebLAiZtsZ4-12" edge="1">
          <mxGeometry width="80" relative="1" as="geometry">
            <mxPoint x="520" y="260" as="sourcePoint" />
            <mxPoint x="460" y="300" as="targetPoint" />
            <Array as="points">
              <mxPoint x="500" y="260" />
              <mxPoint x="440" y="260" />
            </Array>
          </mxGeometry>
        </mxCell>
        <mxCell id="PCxkefbeYpebLAiZtsZ4-12" value="" style="points=[];perimeter=orthogonalPerimeter;rounded=0;shadow=0;strokeWidth=1;" parent="1" vertex="1">
          <mxGeometry x="345" y="260" width="10" height="40" as="geometry" />
        </mxCell>
        <mxCell id="PCxkefbeYpebLAiZtsZ4-13" value="Tự động đăng nhập &amp;amp; Hiển &lt;br&gt;thị trang Index" style="html=1;verticalAlign=bottom;endArrow=block;" parent="1" source="PCxkefbeYpebLAiZtsZ4-12" target="PCxkefbeYpebLAiZtsZ4-1" edge="1">
          <mxGeometry width="80" relative="1" as="geometry">
            <mxPoint x="345" y="299" as="sourcePoint" />
            <mxPoint x="175" y="299" as="targetPoint" />
            <Array as="points">
              <mxPoint x="320" y="299" />
              <mxPoint x="260" y="299" />
            </Array>
          </mxGeometry>
        </mxCell>
        <mxCell id="PCxkefbeYpebLAiZtsZ4-14" value="Thông tin không hợp lệ" style="html=1;verticalAlign=bottom;endArrow=block;" parent="1" source="PCxkefbeYpebLAiZtsZ4-9" target="PCxkefbeYpebLAiZtsZ4-15" edge="1">
          <mxGeometry width="80" relative="1" as="geometry">
            <mxPoint x="525" y="360" as="sourcePoint" />
            <mxPoint x="355" y="360" as="targetPoint" />
            <Array as="points">
              <mxPoint x="500" y="340" />
              <mxPoint x="440" y="340" />
              <mxPoint x="400" y="340" />
            </Array>
          </mxGeometry>
        </mxCell>
        <mxCell id="PCxkefbeYpebLAiZtsZ4-15" value="" style="html=1;points=[];perimeter=orthogonalPerimeter;" parent="1" vertex="1">
          <mxGeometry x="345" y="340" width="10" height="40" as="geometry" />
        </mxCell>
        <mxCell id="PCxkefbeYpebLAiZtsZ4-16" value="Thông báo nhập sai thông tin &amp;amp; &lt;br&gt;Yêu cầu nhập lại thông tin khác" style="html=1;verticalAlign=bottom;endArrow=block;" parent="1" source="PCxkefbeYpebLAiZtsZ4-15" target="PCxkefbeYpebLAiZtsZ4-1" edge="1">
          <mxGeometry width="80" relative="1" as="geometry">
            <mxPoint x="345" y="400" as="sourcePoint" />
            <mxPoint x="175" y="400" as="targetPoint" />
            <Array as="points">
              <mxPoint x="320" y="380" />
              <mxPoint x="270" y="380" />
            </Array>
          </mxGeometry>
        </mxCell>
        <mxCell id="PCxkefbeYpebLAiZtsZ4-17" value="Đăng ký" style="text;align=center;fontStyle=1;verticalAlign=middle;spacingLeft=3;spacingRight=3;strokeColor=none;rotatable=0;points=[[0,0.5],[1,0.5]];portConstraint=eastwest;" parent="1" vertex="1">
          <mxGeometry x="310" y="40" width="80" height="26" as="geometry" />
        </mxCell>
      </root>
    </mxGraphModel>
  </diagram>
</mxfile>
